# Blender 3.5.0
# www.blender.org
mtllib Gage.mtl
o 立方体
v 1.408400 -0.875162 -0.023495
v 1.408400 1.424012 -0.023495
v 1.511692 -0.875162 -0.023495
v 1.511692 1.424012 -0.023495
v 1.408400 -0.875162 0.023495
v 1.408400 1.424012 0.023495
v 1.511692 -0.875162 0.023495
v 1.511692 1.424012 0.023495
v 1.408400 -0.875162 -0.023495
v 1.408400 1.424012 -0.023495
v 1.511692 -0.875162 -0.023495
v 1.511692 1.424012 -0.023495
v 1.408400 -0.875162 0.023495
v 1.408400 1.424012 0.023495
v 1.511692 -0.875162 0.023495
v 1.511692 1.424012 0.023495
v -1.534182 -0.874293 -0.023508
v -1.534182 1.424881 -0.023508
v -1.433309 -0.874293 -0.023508
v -1.433309 1.424881 -0.023508
v -1.534182 -0.874293 0.023482
v -1.534182 1.424881 0.023482
v -1.433309 -0.874293 0.023482
v -1.433309 1.424881 0.023482
v -1.511611 1.424003 -0.023418
v 1.490526 1.424688 -0.023418
v -1.511521 1.189837 -0.023418
v 1.490617 1.190521 -0.023418
v -1.511611 1.424003 0.023572
v 1.490526 1.424688 0.023572
v -1.511521 1.189837 0.023572
v 1.490617 1.190521 0.023572
v -1.497210 -0.639190 -0.023459
v 1.504927 -0.638506 -0.023459
v -1.497118 -0.873358 -0.023459
v 1.505018 -0.872673 -0.023459
v -1.497210 -0.639190 0.023531
v 1.504927 -0.638506 0.023530
v -1.497118 -0.873358 0.023531
v 1.505018 -0.872673 0.023530
vn -0.0000 -0.0000 -1.0000
vn 1.0000 -0.0000 -0.0000
vn -0.0000 -0.0000 1.0000
vn -1.0000 -0.0000 -0.0000
vn -0.0000 -1.0000 -0.0000
vn -0.0000 1.0000 -0.0000
vn 0.0002 -1.0000 -0.0000
vn -0.0002 1.0000 -0.0000
vn -1.0000 -0.0004 -0.0000
vn 1.0000 0.0004 -0.0000
vt 0.222858 0.000000
vt 0.557144 0.000000
vt 0.334287 0.555717
vt 0.222858 0.547033
vt 0.557144 0.547033
vt 0.482072 0.555717
vt 0.649215 0.000000
vt 0.334287 0.500003
vt 0.167143 0.000000
vt 0.167143 0.547033
vt 0.649215 0.547033
vt 0.482072 0.500003
vt 0.603180 0.000000
vt 0.055715 0.000000
vt 0.380322 0.555717
vt 0.055714 0.547033
vt 0.603180 0.547033
vt 0.436036 0.555717
vt 0.111429 0.000000
vt 0.603180 0.000000
vt 0.380322 0.500003
vt 0.436036 0.500003
vt 0.603180 0.547033
vt 0.111429 0.547033
vt 0.055714 0.000000
vt 0.695251 0.000000
vt 0.390001 0.555717
vt 0.055714 0.547033
vt 0.695251 0.547033
vt 0.547465 0.555717
vt 0.695251 0.000000
vt 0.390001 0.500003
vt 0.000000 0.000000
vt 0.000000 0.547033
vt 0.695251 0.547033
vt 0.547465 0.500003
vt 0.741286 0.000000
vt 0.111429 0.000000
vt 0.436036 0.555717
vt 0.111429 0.547033
vt 0.741286 0.547033
vt 0.501430 0.555717
vt 0.167143 0.000000
vt 0.649215 0.000000
vt 0.436036 0.500003
vt 0.501430 0.500003
vt 0.649215 0.547033
vt 0.167143 0.547033
vt 0.334287 0.000000
vt 0.787322 0.000000
vt 0.138107 0.602747
vt 0.334287 0.547033
vt 0.787322 0.547033
vt 0.138107 0.602747
vt 0.787322 0.000000
vt 0.138107 0.547033
vt 0.278572 0.000000
vt 0.278572 0.547033
vt 0.787322 0.547033
vt 0.138107 0.547033
vt 0.833358 0.000000
vt 0.222858 0.000000
vt 0.184142 0.602747
vt 0.222858 0.547033
vt 0.833358 0.547033
vt 0.092071 0.602747
vt 0.278572 0.000000
vt 0.741286 0.000000
vt 0.184142 0.547033
vt 0.092071 0.547033
vt 0.741286 0.547033
vt 0.278572 0.547033
vt 0.390001 0.000003
vt 0.971465 0.500000
vt 0.046036 0.602747
vt 0.390001 0.500003
vt 0.971465 0.000000
vt 0.046036 0.602747
vt 0.334287 0.000000
vt 0.833358 0.500000
vt 0.046036 0.547033
vt 0.334287 0.500000
vt 0.833358 0.000000
vt 0.046036 0.547033
vt 0.925429 0.500000
vt 0.445715 0.500000
vt 0.092071 0.602747
vt 0.445715 0.000000
vt 0.925429 0.000000
vt 0.000000 0.602747
vt 0.390001 0.500003
vt 0.879393 0.500000
vt 0.092071 0.547033
vt 0.000000 0.547033
vt 0.879393 0.000000
vt 0.390001 0.000003
vt 0.501430 0.500000
vt 0.925429 0.500000
vt 0.184142 0.602747
vt 0.501430 0.000000
vt 0.925429 0.000000
vt 0.276213 0.602747
vt 0.557144 0.500003
vt 0.833358 1.000000
vt 0.184142 0.547033
vt 0.557144 0.000003
vt 0.833358 0.500000
vt 0.276213 0.547033
vt 0.879393 0.500000
vt 0.445715 0.000003
vt 0.230178 0.602747
vt 0.445715 0.500003
vt 0.879393 0.000000
vt 0.230178 0.602747
vt 0.501430 0.000000
vt 0.879393 1.000000
vt 0.230178 0.547033
vt 0.230178 0.547033
vt 0.879393 0.500000
vt 0.501430 0.500000
s 0
usemtl マテリアル.001
f 2/4/1 3/9/1 1/1/1
f 4/11/2 7/20/2 3/7/2
f 8/24/3 5/14/3 7/19/3
f 6/17/4 1/2/4 5/13/4
f 7/21/5 1/3/5 3/8/5
f 4/12/6 6/18/6 8/22/6
f 10/28/1 11/33/1 9/25/1
f 12/35/2 15/44/2 11/31/2
f 16/48/3 13/38/3 15/43/3
f 14/41/4 9/26/4 13/37/4
f 15/45/5 9/27/5 11/32/5
f 12/36/6 14/42/6 16/46/6
f 18/52/1 19/57/1 17/49/1
f 20/59/2 23/68/2 19/55/2
f 24/72/3 21/62/3 23/67/3
f 22/65/4 17/50/4 21/61/4
f 23/69/5 17/51/5 19/56/5
f 20/60/6 22/66/6 24/70/6
f 25/73/1 28/82/1 27/79/1
f 28/83/7 31/92/7 27/80/7
f 32/96/3 29/86/3 31/91/3
f 30/89/8 25/74/8 29/85/8
f 31/93/9 25/75/9 27/81/9
f 28/84/10 30/90/10 32/94/10
f 33/97/1 36/106/1 35/103/1
f 36/107/7 39/116/7 35/104/7
f 40/120/3 37/110/3 39/115/3
f 38/113/8 33/98/8 37/109/8
f 39/117/9 33/99/9 35/105/9
f 36/108/10 38/114/10 40/118/10
f 2/4/1 4/10/1 3/9/1
f 4/11/2 8/23/2 7/20/2
f 8/24/3 6/16/3 5/14/3
f 6/17/4 2/5/4 1/2/4
f 7/21/5 5/15/5 1/3/5
f 4/12/6 2/6/6 6/18/6
f 10/28/1 12/34/1 11/33/1
f 12/35/2 16/47/2 15/44/2
f 16/48/3 14/40/3 13/38/3
f 14/41/4 10/29/4 9/26/4
f 15/45/5 13/39/5 9/27/5
f 12/36/6 10/30/6 14/42/6
f 18/52/1 20/58/1 19/57/1
f 20/59/2 24/71/2 23/68/2
f 24/72/3 22/64/3 21/62/3
f 22/65/4 18/53/4 17/50/4
f 23/69/5 21/63/5 17/51/5
f 20/60/6 18/54/6 22/66/6
f 25/73/1 26/76/1 28/82/1
f 28/83/7 32/95/7 31/92/7
f 32/96/3 30/88/3 29/86/3
f 30/89/8 26/77/8 25/74/8
f 31/93/9 29/87/9 25/75/9
f 28/84/10 26/78/10 30/90/10
f 33/97/1 34/100/1 36/106/1
f 36/107/7 40/119/7 39/116/7
f 40/120/3 38/112/3 37/110/3
f 38/113/8 34/101/8 33/98/8
f 39/117/9 37/111/9 33/99/9
f 36/108/10 34/102/10 38/114/10
