# Blender 3.5.0
# www.blender.org
mtllib Stage.mtl
o 円
v 0.000000 33.103279 -125.562187
v -29.263548 32.357307 -122.778183
v -57.402519 30.148066 -114.533180
v 57.402519 30.148066 -114.533180
v 29.263548 32.357307 -122.778183
v -8.281875 -0.544692 0.013743
v -3.974920 -0.547524 0.024313
v 8.264476 -0.555565 0.054324
v 0.000000 -0.550141 0.034081
v 3.970902 -0.552752 0.043824
v -0.036326 33.675552 -125.612289
v -29.299875 32.929581 -122.828285
v -57.438839 30.720341 -114.583282
v 57.366196 30.720341 -114.583282
v 29.227222 32.929581 -122.828285
v -8.318200 0.027579 -0.036343
v -4.011245 0.024746 -0.025773
v 8.228149 0.016705 0.004238
v -0.036326 0.022129 -0.016005
v 3.934576 0.019518 -0.006262
vn -0.0000 0.9659 0.2588
vn -0.0924 0.0810 0.9924
vn 0.9211 0.0245 -0.3884
vn 0.0024 -0.0870 -0.9962
vn 0.2724 0.1011 0.9569
vn 0.0920 0.0926 0.9914
vn -0.2758 0.0665 0.9589
vn -0.9057 -0.0937 -0.4135
vn -0.0923 0.0810 0.9924
vn 0.9211 0.0245 -0.3885
vn -0.2758 0.0664 0.9589
vt 0.632786 0.504165
vt 0.933775 0.755008
vt 0.526730 0.447477
vt 0.933915 0.637062
vt 0.934331 0.525959
vt 0.433771 0.371187
vt 0.933771 0.000799
vt 0.867541 0.550861
vt 0.934331 0.993209
vt 0.933771 0.000686
vt 0.747864 0.539074
vt 0.933915 0.875264
vt 0.933771 0.525738
vt 0.804958 0.000000
vt 0.066233 0.618530
vt 0.821248 0.006699
vt 0.066233 0.600916
vt 0.066233 0.550861
vt 0.933771 0.525810
vt 0.867541 0.025737
vt 0.836283 0.012882
vt 0.066233 0.584660
vt 0.851302 0.019058
vt 0.066233 0.568420
vt 0.199016 0.504166
vt 0.867541 0.754858
vt 0.092959 0.447477
vt 0.867682 0.636913
vt 0.000000 0.371187
vt 1.000000 0.000000
vt 0.868098 0.525810
vt 0.433771 0.550861
vt 0.868098 0.993059
vt 0.867541 0.000000
vt 0.314094 0.539074
vt 0.867682 0.875114
vt 0.371187 0.000000
vt 1.000000 0.524938
vt 0.000000 0.618680
vt 0.387478 0.006699
vt 0.000000 0.601067
vt 0.433771 0.025737
vt 0.000000 0.551012
vt 0.867541 0.525124
vt 0.402512 0.012882
vt 0.000000 0.584810
vt 0.417531 0.019058
vt 0.000000 0.568571
s 0
usemtl マテリアル
f 5/11/1 8/20/1 4/8/1
f 1/1/1 7/16/1 9/21/1
f 2/3/1 6/14/1 7/16/1
f 1/1/1 10/23/1 5/11/1
f 15/35/1 18/42/1 14/32/1
f 11/25/1 17/40/1 19/45/1
f 12/27/1 16/37/1 17/40/1
f 11/25/1 20/47/1 15/35/1
f 15/36/2 1/2/2 5/12/2
f 3/7/3 16/38/3 6/13/3
f 10/24/4 18/43/4 8/18/4
f 9/22/4 20/48/4 10/24/4
f 7/17/4 19/46/4 9/22/4
f 6/15/4 17/41/4 7/17/4
f 2/4/5 13/31/5 3/5/5
f 11/26/6 2/4/6 1/2/6
f 14/33/7 5/12/7 4/9/7
f 18/44/8 4/10/8 8/19/8
f 5/11/1 10/23/1 8/20/1
f 1/1/1 2/3/1 7/16/1
f 2/3/1 3/6/1 6/14/1
f 1/1/1 9/21/1 10/23/1
f 15/35/1 20/47/1 18/42/1
f 11/25/1 12/27/1 17/40/1
f 12/27/1 13/29/1 16/37/1
f 11/25/1 19/45/1 20/47/1
f 15/36/9 11/26/9 1/2/9
f 3/7/10 13/30/10 16/38/10
f 10/24/4 20/48/4 18/43/4
f 9/22/4 19/46/4 20/48/4
f 7/17/4 17/41/4 19/46/4
f 6/15/4 16/39/4 17/41/4
f 2/4/5 12/28/5 13/31/5
f 11/26/6 12/28/6 2/4/6
f 14/33/11 15/36/11 5/12/11
f 18/44/8 14/34/8 4/10/8
