# Blender 3.5.0
# www.blender.org
mtllib Speedupspot.mtl
o 円錐
v -2.647682 -0.002314 -5.475127
v -3.657669 -0.000227 -4.855288
v -4.527323 0.002238 -4.050322
v -5.223226 0.004987 -3.091161
v -5.718632 0.007914 -2.014667
v -5.994505 0.010908 -0.862209
v -6.040242 0.013853 0.321927
v -5.854087 0.016635 1.492232
v -5.443192 0.019149 2.603734
v -4.823348 0.021296 3.613718
v -4.018376 0.022995 4.483369
v -3.059211 0.024181 5.179271
v -1.982711 0.024808 5.674677
v -0.830247 0.024851 5.950553
v 0.353892 0.024309 5.996293
v 1.524202 0.023204 5.810140
v 2.635708 0.021577 5.399248
v 3.645694 0.019490 4.779409
v 4.515348 0.017025 3.974442
v 5.211251 0.014276 3.015282
v 5.706657 0.011348 1.938788
v 5.982530 0.008355 0.786329
v 6.028268 0.005410 -0.397806
v 5.842112 0.002628 -1.568112
v 5.431217 0.000114 -2.679613
v 4.811374 -0.002033 -3.689597
v 4.006402 -0.003732 -4.559249
v 3.047236 -0.004918 -5.255150
v 1.970737 -0.005544 -5.750556
v -1.536177 -0.003941 -5.886019
v 0.818273 -0.005588 -6.026431
v -0.365867 -0.005046 -6.072169
v -0.365663 0.085773 -6.073079
v 0.818476 0.085231 -6.027340
v -1.535973 0.086878 -5.886928
v 1.970941 0.085275 -5.751465
v 3.047440 0.085901 -5.256060
v 4.006605 0.087087 -4.560158
v 4.811577 0.088787 -3.690506
v 5.431420 0.090934 -2.680522
v 5.842316 0.093447 -1.569021
v 6.028471 0.096229 -0.398715
v 5.982733 0.099174 0.785420
v 5.706861 0.102168 1.937878
v 5.211454 0.105095 3.014372
v 4.515552 0.107845 3.973533
v 3.645898 0.110310 4.778500
v 2.635911 0.112396 5.398339
v 1.524406 0.114023 5.809230
v 0.354096 0.115129 5.995383
v -0.830044 0.115670 5.949644
v -1.982508 0.115627 5.673768
v -3.059007 0.115000 5.178362
v -4.018173 0.113814 4.482460
v -4.823145 0.112115 3.612809
v -5.442987 0.109968 2.602825
v -5.853883 0.107454 1.491323
v -6.040039 0.104672 0.321017
v -5.994301 0.101727 -0.863118
v -5.718428 0.098734 -2.015576
v -5.223022 0.095806 -3.092070
v -4.527120 0.093057 -4.051231
v -3.657465 0.090592 -4.856197
v -2.647479 0.088506 -5.476036
vn -0.4180 0.0100 0.9084
vn 0.7339 -0.0084 -0.6793
vn -0.2328 0.0102 0.9725
vn -0.3467 -0.0086 -0.9379
vn 0.5872 -0.0094 -0.8094
vn -0.0386 0.0101 0.9992
vn -0.5231 -0.0074 -0.8523
vn 0.4180 -0.0100 -0.9084
vn 0.1571 0.0095 0.9875
vn -0.6793 -0.0058 -0.7339
vn 0.2328 -0.0103 -0.9725
vn 0.3467 0.0086 0.9379
vn -0.8094 -0.0041 -0.5872
vn -0.1571 -0.0095 -0.9875
vn 0.5231 0.0074 0.8523
vn -0.9084 -0.0021 -0.4181
vn 0.0386 -0.0101 -0.9992
vn 0.6793 0.0058 0.7339
vn -0.9725 -0.0002 -0.2328
vn 0.8094 0.0041 0.5872
vn -0.9993 0.0019 -0.0386
vn 0.9084 0.0022 0.4181
vn -0.9876 0.0038 0.1571
vn 0.9725 0.0002 0.2328
vn -0.9380 0.0056 0.3467
vn 0.9993 -0.0018 0.0386
vn -0.8523 0.0071 0.5230
vn 0.9876 -0.0038 -0.1571
vn -0.7339 0.0084 0.6793
vn 0.9380 -0.0056 -0.3467
vn -0.5872 0.0094 0.8094
vn 0.8523 -0.0071 -0.5230
vn -0.0006 -1.0000 0.0025
vn 0.0006 1.0000 -0.0025
vn -0.2328 0.0103 0.9725
vn -0.9084 -0.0022 -0.4181
vn -0.9725 -0.0001 -0.2328
vn -0.9993 0.0018 -0.0386
vn 0.9084 0.0021 0.4181
vn -0.0005 -1.0000 0.0025
vn 0.0005 1.0000 -0.0025
vt 0.018985 0.818734
vt 0.012586 0.500014
vt 0.090634 0.055813
vt 0.012585 0.534836
vt 0.055812 0.090635
vt 0.012584 0.575783
vt 0.028453 0.131581
vt 0.012584 0.621280
vt 0.009607 0.177079
vt 0.012584 0.669580
vt 0.000000 0.225378
vt 0.012583 0.718826
vt 0.000000 0.274624
vt 0.012584 0.767125
vt 0.009607 0.322924
vt 0.012584 0.812623
vt 0.028453 0.368421
vt 0.012585 0.853569
vt 0.055813 0.409368
vt 0.012586 0.888391
vt 0.019094 0.818733
vt 0.090635 0.444190
vt 0.019040 0.777787
vt 0.131581 0.471549
vt 0.019004 0.732290
vt 0.177078 0.490395
vt 0.018985 0.683991
vt 0.225377 0.500002
vt 0.018985 0.634745
vt 0.274623 0.500002
vt 0.019004 0.586445
vt 0.322923 0.490395
vt 0.019040 0.540948
vt 0.368420 0.471549
vt 0.019094 0.500002
vt 0.000003 0.888391
vt 0.409366 0.444189
vt 0.000002 0.853569
vt 0.444188 0.409367
vt 0.000001 0.812623
vt 0.471547 0.368421
vt 0.000000 0.767125
vt 0.490393 0.322923
vt 0.000000 0.718826
vt 0.500000 0.274624
vt 0.000000 0.669580
vt 0.500000 0.225378
vt 0.000000 0.621280
vt 0.490393 0.177078
vt 0.000001 0.575783
vt 0.471547 0.131581
vt 0.000002 0.534836
vt 0.444187 0.090634
vt 0.018985 0.500002
vt 0.000003 0.500014
vt 0.409365 0.055812
vt 0.018932 0.540948
vt 0.368419 0.028453
vt 0.018895 0.586446
vt 0.322922 0.009607
vt 0.018877 0.634745
vt 0.274622 0.000000
vt 0.018932 0.777787
vt 0.131580 0.028453
vt 0.018877 0.683991
vt 0.225377 0.000000
vt 0.018895 0.732290
vt 0.177077 0.009608
vt 0.012605 0.732290
vt 0.868419 0.028453
vt 0.012586 0.683991
vt 0.822922 0.009607
vt 0.012641 0.777787
vt 0.909366 0.055812
vt 0.012586 0.634745
vt 0.774623 0.000000
vt 0.012605 0.586446
vt 0.725377 0.000000
vt 0.012641 0.540949
vt 0.677078 0.009608
vt 0.006293 0.500002
vt 0.012695 0.500002
vt 0.631581 0.028453
vt 0.006292 0.534824
vt 0.590634 0.055813
vt 0.006291 0.575771
vt 0.555812 0.090635
vt 0.006291 0.621268
vt 0.528453 0.131581
vt 0.006290 0.669568
vt 0.509607 0.177079
vt 0.006290 0.718814
vt 0.500000 0.225378
vt 0.006291 0.767113
vt 0.500000 0.274624
vt 0.006291 0.812611
vt 0.509607 0.322924
vt 0.006292 0.853557
vt 0.528453 0.368421
vt 0.025384 0.500002
vt 0.006293 0.888379
vt 0.555812 0.409368
vt 0.025331 0.540949
vt 0.590634 0.444190
vt 0.025294 0.586446
vt 0.631580 0.471549
vt 0.025275 0.634745
vt 0.677078 0.490395
vt 0.025275 0.683991
vt 0.725377 0.500002
vt 0.025294 0.732290
vt 0.774623 0.500002
vt 0.025331 0.777787
vt 0.822922 0.490394
vt 0.006296 0.888379
vt 0.025384 0.818734
vt 0.868419 0.471549
vt 0.006295 0.853557
vt 0.909366 0.444189
vt 0.006294 0.812610
vt 0.944188 0.409367
vt 0.006293 0.767113
vt 0.971547 0.368421
vt 0.006293 0.718813
vt 0.990393 0.322923
vt 0.006293 0.669568
vt 1.000000 0.274624
vt 0.006293 0.621268
vt 1.000000 0.225378
vt 0.006294 0.575771
vt 0.990393 0.177078
vt 0.006295 0.534824
vt 0.971547 0.131581
vt 0.012695 0.818734
vt 0.006296 0.500002
vt 0.944188 0.090634
s 0
usemtl マテリアル
f 52/109/1 12/25/1 13/27/1
f 39/82/2 27/57/2 38/79/2
f 51/107/3 13/27/3 14/29/3
f 64/134/4 30/63/4 1/1/4
f 38/79/5 28/59/5 37/77/5
f 51/107/6 15/31/6 50/105/6
f 63/132/7 1/2/7 2/4/7
f 37/77/8 29/61/8 36/75/8
f 50/105/9 16/33/9 49/103/9
f 62/130/10 2/4/10 3/6/10
f 36/75/11 31/65/11 34/71/11
f 49/103/12 17/35/12 48/100/12
f 61/128/13 3/6/13 4/8/13
f 35/73/14 32/67/14 30/63/14
f 48/101/15 18/38/15 47/98/15
f 60/126/16 4/8/16 5/10/16
f 33/69/17 31/65/17 32/67/17
f 47/98/18 19/40/18 46/96/18
f 59/124/19 5/10/19 6/12/19
f 46/96/20 20/42/20 45/94/20
f 58/122/21 6/12/21 7/14/21
f 45/94/22 21/44/22 44/92/22
f 57/120/23 7/14/23 8/16/23
f 44/92/24 22/46/24 43/90/24
f 56/118/25 8/16/25 9/18/25
f 43/90/26 23/48/26 42/88/26
f 55/115/27 9/18/27 10/20/27
f 42/88/28 24/50/28 41/86/28
f 54/113/29 10/21/29 11/23/29
f 41/86/30 25/52/30 40/84/30
f 53/111/31 11/23/31 12/25/31
f 40/84/32 26/55/32 39/81/32
f 24/51/33 16/34/33 8/17/33
f 59/125/34 51/108/34 43/91/34
f 52/109/1 53/111/1 12/25/1
f 39/82/2 26/54/2 27/57/2
f 51/107/35 52/109/35 13/27/35
f 64/134/4 35/73/4 30/63/4
f 38/79/5 27/57/5 28/59/5
f 51/107/6 14/29/6 15/31/6
f 63/132/7 64/135/7 1/2/7
f 37/77/8 28/59/8 29/61/8
f 50/105/9 15/31/9 16/33/9
f 62/130/10 63/132/10 2/4/10
f 36/75/11 29/61/11 31/65/11
f 49/103/12 16/33/12 17/35/12
f 61/128/13 62/130/13 3/6/13
f 35/73/14 33/69/14 32/67/14
f 48/101/15 17/36/15 18/38/15
f 60/126/36 61/128/36 4/8/36
f 33/69/17 34/71/17 31/65/17
f 47/98/18 18/38/18 19/40/18
f 59/124/37 60/126/37 5/10/37
f 46/96/20 19/40/20 20/42/20
f 58/122/38 59/124/38 6/12/38
f 45/94/39 20/42/39 21/44/39
f 57/120/23 58/122/23 7/14/23
f 44/92/24 21/44/24 22/46/24
f 56/118/25 57/120/25 8/16/25
f 43/90/26 22/46/26 23/48/26
f 55/115/27 56/118/27 9/18/27
f 42/88/28 23/48/28 24/50/28
f 54/113/29 55/116/29 10/21/29
f 41/86/30 24/50/30 25/52/30
f 53/111/31 54/113/31 11/23/31
f 40/84/32 25/52/32 26/55/32
f 30/64/33 32/68/33 28/60/33
f 32/68/33 31/66/33 28/60/33
f 31/66/40 29/62/40 28/60/40
f 28/60/33 27/58/33 26/56/33
f 26/56/33 25/53/33 28/60/33
f 25/53/33 24/51/33 28/60/33
f 24/51/40 23/49/40 22/47/40
f 22/47/33 21/45/33 20/43/33
f 20/43/33 19/41/33 16/34/33
f 19/41/33 18/39/33 16/34/33
f 18/39/33 17/37/33 16/34/33
f 16/34/33 15/32/33 14/30/33
f 14/30/33 13/28/33 16/34/33
f 13/28/33 12/26/33 16/34/33
f 12/26/33 11/24/33 10/22/33
f 10/22/33 9/19/33 8/17/33
f 8/17/33 7/15/33 6/13/33
f 6/13/40 5/11/40 4/9/40
f 4/9/33 3/7/33 30/64/33
f 3/7/33 2/5/33 30/64/33
f 2/5/33 1/3/33 30/64/33
f 24/51/33 22/47/33 16/34/33
f 22/47/33 20/43/33 16/34/33
f 12/26/33 10/22/33 16/34/33
f 10/22/33 8/17/33 16/34/33
f 8/17/33 6/13/33 30/64/33
f 6/13/33 4/9/33 30/64/33
f 30/64/33 28/60/33 24/51/33
f 30/64/33 24/51/33 8/17/33
f 34/72/34 33/70/34 63/133/34
f 33/70/34 35/74/34 63/133/34
f 35/74/34 64/136/34 63/133/34
f 63/133/34 62/131/34 61/129/34
f 61/129/34 60/127/34 63/133/34
f 60/127/34 59/125/34 63/133/34
f 59/125/34 58/123/34 57/121/34
f 57/121/34 56/119/34 55/117/34
f 55/117/34 54/114/34 53/112/34
f 53/112/34 52/110/34 55/117/34
f 52/110/34 51/108/34 55/117/34
f 51/108/34 50/106/34 49/104/34
f 49/104/34 48/102/34 51/108/34
f 48/102/34 47/99/34 51/108/34
f 47/99/34 46/97/34 45/95/34
f 45/95/41 44/93/41 43/91/41
f 43/91/34 42/89/34 41/87/34
f 41/87/34 40/85/34 39/83/34
f 39/83/34 38/80/34 34/72/34
f 38/80/34 37/78/34 34/72/34
f 37/78/34 36/76/34 34/72/34
f 59/125/34 57/121/34 51/108/34
f 57/121/34 55/117/34 51/108/34
f 47/99/34 45/95/34 51/108/34
f 45/95/34 43/91/34 51/108/34
f 43/91/34 41/87/34 34/72/34
f 41/87/34 39/83/34 34/72/34
f 34/72/34 63/133/34 59/125/34
f 34/72/34 59/125/34 43/91/34
