# Blender 3.5.0
# www.blender.org
mtllib Goal.mtl
o 立方体.009
v 13.840791 0.289800 22.815254
v 13.840791 0.289325 24.815254
v 13.840791 5.255268 22.816437
v 13.840791 5.254792 24.816437
v 15.015796 0.289800 22.815254
v 15.015796 0.289325 24.815254
v 15.015796 5.255268 22.816437
v 15.015796 5.254792 24.816437
v -15.052750 0.090948 76.563736
v -15.052750 0.586605 76.563736
v -15.052750 0.090942 0.121765
v -15.052750 0.586600 0.121769
v 15.052747 0.090948 76.563736
v 15.052747 0.586605 76.563736
v 15.052747 0.090942 0.121765
v 15.052747 0.586600 0.121769
v -15.052750 0.068258 76.172256
v -15.052750 0.066516 78.241241
v -15.052750 18.232620 76.187546
v -15.052750 18.230877 78.256531
v 15.052747 0.068258 76.172256
v 15.052747 0.066516 78.241241
v 15.052747 18.232620 76.187546
v 15.052747 18.230877 78.256531
v -14.911133 16.288242 76.646622
v -14.911133 18.236950 76.196579
v -14.911133 0.229614 7.112322
v -14.911133 2.178320 6.662277
v -13.736128 16.288242 76.646622
v -13.736128 18.236950 76.196579
v -13.736128 0.229614 7.112322
v -13.736128 2.178320 6.662277
v 13.876030 16.271931 76.606255
v 13.876030 18.220638 76.156212
v 13.876030 0.213302 7.071955
v 13.876030 2.162009 6.621910
v 15.051036 16.271931 76.606255
v 15.051036 18.220638 76.156212
v 15.051036 0.213302 7.071955
v 15.051036 2.162009 6.621910
v -14.911520 0.276795 40.868038
v -14.911520 0.276319 42.868038
v -14.911520 9.791955 40.870300
v -14.911520 9.791479 42.870300
v -13.736515 0.276795 40.868038
v -13.736515 0.276319 42.868038
v -13.736515 9.791955 40.870300
v -13.736515 9.791479 42.870300
v -14.895723 0.339355 60.030243
v -14.895723 0.338878 62.030243
v -14.895723 13.792839 60.033443
v -14.895723 13.792363 62.033443
v -13.720716 0.339355 60.030243
v -13.720716 0.338878 62.030243
v -13.720716 13.792839 60.033443
v -13.720716 13.792363 62.033443
v -14.930340 0.223827 22.914719
v -14.930340 0.223351 24.914719
v -14.930340 5.189294 22.915901
v -14.930340 5.188818 24.915901
v -13.755335 0.223827 22.914719
v -13.755335 0.223351 24.914719
v -13.755335 5.189294 22.915901
v -13.755335 5.188818 24.915901
v 13.859609 0.342769 40.768570
v 13.859609 0.342293 42.768570
v 13.859609 9.857929 40.770836
v 13.859609 9.857452 42.770836
v 15.034614 0.342769 40.768570
v 15.034614 0.342293 42.768570
v 15.034614 9.857929 40.770836
v 15.034614 9.857452 42.770836
v 13.875406 0.405328 59.930779
v 13.875406 0.404852 61.930779
v 13.875406 13.858814 59.933979
v 13.875406 13.858336 61.933979
v 15.050411 0.405328 59.930779
v 15.050411 0.404852 61.930779
v 15.050411 13.858814 59.933979
v 15.050411 13.858336 61.933979
vn -1.0000 -0.0000 -0.0000
vn -0.0000 1.0000 0.0002
vn 1.0000 -0.0000 -0.0000
vn -0.0000 -1.0000 -0.0002
vn -0.0000 0.0002 -1.0000
vn -0.0000 -0.0002 1.0000
vn -0.0000 -0.0000 -1.0000
vn -0.0000 -0.0000 1.0000
vn -0.0000 -1.0000 -0.0000
vn -0.0000 1.0000 -0.0000
vn -0.0000 1.0000 0.0008
vn -0.0000 -1.0000 -0.0008
vn -0.0000 0.0008 -1.0000
vn -0.0000 -0.0008 1.0000
vn -0.0000 -0.2250 -0.9744
vn -0.0000 0.2250 0.9744
vn -0.0000 -0.9744 0.2250
vn -0.0000 0.9744 -0.2250
vt 0.341130 0.618735
vt 0.470640 0.618735
vt 0.599903 0.618735
vt 0.341130 0.634926
vt 0.454452 0.618735
vt 0.583796 0.634926
vt 0.454452 0.634926
vt 0.616010 0.618735
vt 0.324939 0.618735
vt 0.324939 0.634926
vt 0.438263 0.634926
vt 0.599903 0.634926
vt 0.341130 0.618735
vt 0.470640 0.634926
vt 0.599903 0.634926
vt 0.341130 0.634926
vt 0.454452 0.634926
vt 0.583796 0.618735
vt 0.454452 0.618735
vt 0.357322 0.618735
vt 0.616010 0.634926
vt 0.599903 0.618735
vt 0.438263 0.618735
vt 0.357322 0.634926
vt 0.998384 0.618841
vt 0.890205 0.978605
vt 0.414842 0.618735
vt 0.996768 0.618840
vt 0.891813 0.978605
vt 0.414842 0.618735
vt 0.998384 0.000001
vt 0.888597 0.563763
vt 0.414842 0.000000
vt 0.996768 0.000000
vt 0.890205 0.563763
vt 0.414842 0.000000
vt 0.890205 0.563763
vt 1.000000 0.000000
vt 0.829684 0.618735
vt 0.998384 0.000001
vt 0.891813 0.563763
vt 0.000000 0.618735
vt 1.000000 0.618840
vt 0.888597 0.978605
vt 0.829684 0.000000
vt 0.000000 0.000000
vt 0.890205 0.978605
vt 0.998384 0.618841
vt 0.016750 0.618735
vt 0.970109 0.000000
vt 0.829684 0.000000
vt 0.033499 0.618756
vt 0.953362 0.000000
vt 0.829684 0.829684
vt 0.016750 0.677965
vt 0.970109 0.829684
vt 0.888597 0.000000
vt 0.033499 0.677985
vt 0.953362 0.829684
vt 0.888597 0.829684
vt 0.970109 0.414842
vt 0.000000 0.677986
vt 0.829684 0.414842
vt 0.016750 0.677965
vt 0.953362 0.414842
vt 0.829684 0.414842
vt 0.000000 0.618756
vt 0.970109 0.414842
vt 0.888597 0.414842
vt 0.888597 0.414842
vt 0.953362 0.414842
vt 0.016750 0.618735
vt 0.976773 0.568366
vt 0.636086 0.634926
vt 0.937171 0.563763
vt 0.970109 0.565323
vt 0.642777 0.634926
vt 0.937171 0.563763
vt 0.976774 0.003042
vt 0.622702 0.618735
vt 0.937171 0.000000
vt 0.970109 0.000000
vt 0.629394 0.618735
vt 0.937171 0.000000
vt 0.636086 0.618735
vt 0.996768 0.000000
vt 0.953362 0.563763
vt 0.990103 0.003042
vt 0.642777 0.618735
vt 0.920980 0.563763
vt 0.996768 0.565323
vt 0.622702 0.634926
vt 0.953362 0.000000
vt 0.920980 0.000000
vt 0.629394 0.634926
vt 0.990103 0.568366
vt 0.983438 0.568366
vt 0.616010 0.634926
vt 0.888597 0.563763
vt 0.976773 0.565323
vt 0.622702 0.634926
vt 0.920980 0.563763
vt 0.983438 0.003042
vt 0.629394 0.618735
vt 0.888598 0.000000
vt 0.976774 0.000000
vt 0.636086 0.618735
vt 0.920980 0.000000
vt 0.616010 0.618735
vt 0.990103 0.000000
vt 0.904789 0.563763
vt 0.983438 0.003042
vt 0.622702 0.618735
vt 0.904789 0.563763
vt 0.990103 0.565323
vt 0.629394 0.634926
vt 0.904789 0.000000
vt 0.904789 0.000000
vt 0.636086 0.634926
vt 0.983438 0.568366
vt 0.211601 0.649762
vt 0.519205 0.618735
vt 0.276366 0.649601
vt 0.195410 0.649762
vt 0.503016 0.618735
vt 0.276366 0.649601
vt 0.211601 0.618735
vt 0.535393 0.634926
vt 0.276366 0.618735
vt 0.195410 0.618735
vt 0.519205 0.634926
vt 0.276366 0.618735
vt 0.519205 0.634926
vt 0.227793 0.618735
vt 0.292557 0.649601
vt 0.211601 0.618735
vt 0.503016 0.634926
vt 0.260175 0.649601
vt 0.227793 0.649762
vt 0.535393 0.618735
vt 0.292557 0.618735
vt 0.260175 0.618735
vt 0.519205 0.618735
vt 0.211601 0.649762
vt 0.082073 0.662603
vt 0.373510 0.618735
vt 0.130646 0.662376
vt 0.065881 0.662603
vt 0.357321 0.618735
vt 0.163028 0.662376
vt 0.082073 0.618735
vt 0.405887 0.634926
vt 0.130646 0.618735
vt 0.065881 0.618735
vt 0.389698 0.634926
vt 0.163028 0.618735
vt 0.373510 0.634926
vt 0.065881 0.618735
vt 0.146837 0.662376
vt 0.049690 0.618735
vt 0.357321 0.634926
vt 0.146837 0.662376
vt 0.065881 0.662603
vt 0.405887 0.618735
vt 0.146837 0.618735
vt 0.146837 0.618735
vt 0.389698 0.618735
vt 0.049690 0.662603
vt 0.324939 0.618735
vt 0.486828 0.618735
vt 0.551582 0.618735
vt 0.324939 0.634926
vt 0.470640 0.618735
vt 0.567689 0.634926
vt 0.438263 0.634926
vt 0.567689 0.618735
vt 0.308748 0.618735
vt 0.308748 0.634926
vt 0.422075 0.634926
vt 0.583796 0.634926
vt 0.292557 0.618735
vt 0.486828 0.634926
vt 0.551582 0.634926
vt 0.292557 0.634926
vt 0.470640 0.634926
vt 0.567689 0.618735
vt 0.438263 0.618735
vt 0.308748 0.618735
vt 0.567689 0.634926
vt 0.583796 0.618735
vt 0.422075 0.618735
vt 0.308748 0.634926
vt 0.179219 0.649762
vt 0.551582 0.618735
vt 0.227793 0.649601
vt 0.163028 0.649762
vt 0.535393 0.618735
vt 0.260175 0.649601
vt 0.179219 0.618735
vt 0.503016 0.634926
vt 0.227793 0.618735
vt 0.163028 0.618735
vt 0.486828 0.634926
vt 0.260175 0.618735
vt 0.551582 0.634926
vt 0.195410 0.618735
vt 0.243984 0.649601
vt 0.179219 0.618735
vt 0.535393 0.634926
vt 0.243984 0.649601
vt 0.195410 0.649762
vt 0.503016 0.618735
vt 0.243984 0.618735
vt 0.243984 0.618735
vt 0.486828 0.618735
vt 0.179219 0.649762
vt 0.098264 0.662603
vt 0.389698 0.618735
vt 0.114455 0.662376
vt 0.082073 0.662603
vt 0.373510 0.618735
vt 0.114455 0.662376
vt 0.098264 0.618735
vt 0.422075 0.634926
vt 0.114455 0.618735
vt 0.082073 0.618735
vt 0.405887 0.634926
vt 0.114455 0.618735
vt 0.389698 0.634926
vt 0.049690 0.618735
vt 0.130646 0.662376
vt 0.033499 0.618735
vt 0.373510 0.634926
vt 0.098264 0.662376
vt 0.049690 0.662603
vt 0.422075 0.618735
vt 0.130646 0.618735
vt 0.098264 0.618735
vt 0.405887 0.618735
vt 0.033499 0.662603
s 0
usemtl マテリアル.002
f 2/4/1 3/9/1 1/1/1
f 4/11/2 7/19/2 3/7/2
f 7/20/3 6/16/3 5/13/3
f 6/17/4 1/2/4 5/14/4
f 7/21/5 1/3/5 3/8/5
f 4/12/6 6/18/6 8/22/6
f 9/25/1 12/34/1 11/31/1
f 12/35/7 15/44/7 11/32/7
f 16/48/3 13/38/3 15/43/3
f 14/41/8 9/26/8 13/37/8
f 15/45/9 9/27/9 11/33/9
f 12/36/10 14/42/10 16/46/10
f 17/49/1 20/58/1 19/55/1
f 20/59/11 23/68/11 19/56/11
f 24/72/3 21/62/3 23/67/3
f 22/65/12 17/50/12 21/61/12
f 23/69/13 17/51/13 19/57/13
f 20/60/14 22/66/14 24/70/14
f 25/73/1 28/82/1 27/79/1
f 28/83/15 31/92/15 27/80/15
f 32/96/3 29/86/3 31/91/3
f 30/89/16 25/74/16 29/85/16
f 31/93/17 25/75/17 27/81/17
f 28/84/18 30/90/18 32/94/18
f 33/97/1 36/106/1 35/103/1
f 36/107/15 39/116/15 35/104/15
f 40/120/3 37/110/3 39/115/3
f 38/113/16 33/98/16 37/109/16
f 39/117/17 33/99/17 35/105/17
f 36/108/18 38/114/18 40/118/18
f 41/121/1 44/130/1 43/127/1
f 44/131/2 47/140/2 43/128/2
f 48/144/3 45/134/3 47/139/3
f 46/137/4 41/122/4 45/133/4
f 47/141/5 41/123/5 43/129/5
f 44/132/6 46/138/6 48/142/6
f 49/145/1 52/154/1 51/151/1
f 52/155/2 55/164/2 51/152/2
f 56/168/3 53/158/3 55/163/3
f 54/161/4 49/146/4 53/157/4
f 55/165/5 49/147/5 51/153/5
f 52/156/6 54/162/6 56/166/6
f 58/172/1 59/177/1 57/169/1
f 60/179/2 63/187/2 59/175/2
f 63/188/3 62/184/3 61/181/3
f 62/185/4 57/170/4 61/182/4
f 63/189/5 57/171/5 59/176/5
f 60/180/6 62/186/6 64/190/6
f 65/193/1 68/202/1 67/199/1
f 68/203/2 71/212/2 67/200/2
f 72/216/3 69/206/3 71/211/3
f 70/209/4 65/194/4 69/205/4
f 71/213/5 65/195/5 67/201/5
f 68/204/6 70/210/6 72/214/6
f 73/217/1 76/226/1 75/223/1
f 76/227/2 79/236/2 75/224/2
f 80/240/3 77/230/3 79/235/3
f 78/233/4 73/218/4 77/229/4
f 79/237/5 73/219/5 75/225/5
f 76/228/6 78/234/6 80/238/6
f 2/4/1 4/10/1 3/9/1
f 4/11/2 8/23/2 7/19/2
f 7/20/3 8/24/3 6/16/3
f 6/17/4 2/5/4 1/2/4
f 7/21/5 5/15/5 1/3/5
f 4/12/6 2/6/6 6/18/6
f 9/25/1 10/28/1 12/34/1
f 12/35/7 16/47/7 15/44/7
f 16/48/3 14/40/3 13/38/3
f 14/41/8 10/29/8 9/26/8
f 15/45/9 13/39/9 9/27/9
f 12/36/10 10/30/10 14/42/10
f 17/49/1 18/52/1 20/58/1
f 20/59/11 24/71/11 23/68/11
f 24/72/3 22/64/3 21/62/3
f 22/65/12 18/53/12 17/50/12
f 23/69/13 21/63/13 17/51/13
f 20/60/14 18/54/14 22/66/14
f 25/73/1 26/76/1 28/82/1
f 28/83/15 32/95/15 31/92/15
f 32/96/3 30/88/3 29/86/3
f 30/89/16 26/77/16 25/74/16
f 31/93/17 29/87/17 25/75/17
f 28/84/18 26/78/18 30/90/18
f 33/97/1 34/100/1 36/106/1
f 36/107/15 40/119/15 39/116/15
f 40/120/3 38/112/3 37/110/3
f 38/113/16 34/101/16 33/98/16
f 39/117/17 37/111/17 33/99/17
f 36/108/18 34/102/18 38/114/18
f 41/121/1 42/124/1 44/130/1
f 44/131/2 48/143/2 47/140/2
f 48/144/3 46/136/3 45/134/3
f 46/137/4 42/125/4 41/122/4
f 47/141/5 45/135/5 41/123/5
f 44/132/6 42/126/6 46/138/6
f 49/145/1 50/148/1 52/154/1
f 52/155/2 56/167/2 55/164/2
f 56/168/3 54/160/3 53/158/3
f 54/161/4 50/149/4 49/146/4
f 55/165/5 53/159/5 49/147/5
f 52/156/6 50/150/6 54/162/6
f 58/172/1 60/178/1 59/177/1
f 60/179/2 64/191/2 63/187/2
f 63/188/3 64/192/3 62/184/3
f 62/185/4 58/173/4 57/170/4
f 63/189/5 61/183/5 57/171/5
f 60/180/6 58/174/6 62/186/6
f 65/193/1 66/196/1 68/202/1
f 68/203/2 72/215/2 71/212/2
f 72/216/3 70/208/3 69/206/3
f 70/209/4 66/197/4 65/194/4
f 71/213/5 69/207/5 65/195/5
f 68/204/6 66/198/6 70/210/6
f 73/217/1 74/220/1 76/226/1
f 76/227/2 80/239/2 79/236/2
f 80/240/3 78/232/3 77/230/3
f 78/233/4 74/221/4 73/218/4
f 79/237/5 77/231/5 73/219/5
f 76/228/6 74/222/6 78/234/6
